<svg xmlns="http://www.w3.org/2000/svg" viewBox="0 0 1036 260"><defs><style>.cls-1{fill:#c8000a;}.cls-2{fill:#212121;}</style></defs><title>tutcclogod2A</title><g id="レイヤー_1" data-name="レイヤー 1"><g id="layer1"><g id="g4301"><path id="path4299-4" class="cls-1" d="M194.9,57.52a93.68,93.68,0,1,0,77.76,140.83L218.4,167A31.29,31.29,0,0,1,160,151.39h0a31.28,31.28,0,0,1,58.4-15.64l54.27-31.33a93.93,93.93,0,0,0-77.76-46.9Z"/><path id="path4251-7" class="cls-2" d="M150.62,13.24a93.94,93.94,0,1,0,77.76,140.83l-54.26-31.33a31.29,31.29,0,0,1-58.4-15.64h0a31.28,31.28,0,0,1,58.4-15.64l54.27-31.33A93.94,93.94,0,0,0,150.62,13.24Z"/><path id="path4251" class="cls-1" d="M255.15,82.47a94,94,0,0,0-130.38,2.58l44.41,44.2a31.24,31.24,0,0,1,49.21,6.49l54.27-31.33A93.94,93.94,0,0,0,255.15,82.47Z"/></g></g><path class="cls-2" d="M290.68,107h35.52v2.64H290.68Zm31.88,12.3H318c-.19.54-1,2.91-1.15,3.37h9.35v2.72H290.68v-2.72h9.54c-.38-1.46-.57-2-1-3.37h-4.83v-7.59h28.2ZM302.44,92.91V90.69h2.76v2.22h6.25V90.69h2.8v2.22h9.39v12H293.24v-12Zm0,2.26h-6.36v2.68h6.36Zm0,4.64h-6.36v2.8h6.36Zm17,14.25h-22V117h22Zm-5.79,8.58a27.56,27.56,0,0,0,1-3.37h-12.3c.15.5.8,2.84,1,3.37Zm-2.22-27.47H305.2v2.68h6.25Zm0,4.64H305.2v2.8h6.25Zm9.27-4.64h-6.47v2.68h6.47Zm0,4.64h-6.47v2.8h6.47Z"/><path class="cls-2" d="M337.76,111.84a19,19,0,0,1-2.41-4.44v18.85H332.4v-18a29.87,29.87,0,0,1-4,8.62L327,113.18a32.84,32.84,0,0,0,5.25-12.11h-4.75V98.16h4.87V90.69h2.95v7.47h3.45v2.91h-3.45v1.61a23.72,23.72,0,0,0,4.1,6.78Zm.23-7.7a19,19,0,0,0,7.43-5.75H339V96h8c.65-1.23.88-1.72,1.07-2.11-4.67.19-6.05.19-7.51.19l-.61-2.3c11.19,0,16.32-.77,19.5-1.42l1.3,2.3a92.84,92.84,0,0,1-9.62,1.07c-.61,1.46-.88,2-1,2.26H362.9v2.38h-6.67c1.88,2.68,3.33,3.95,7.51,5.82l-1.23,2.49a19.1,19.1,0,0,1-4.25-2.49v4.29H343.39v-4.44a24.18,24.18,0,0,1-4,2.49Zm23.87,19.46c0,2.45-1.49,2.64-3.22,2.64h-3.1l-.54-2.68,2.49,0c1.3,0,1.42-.19,1.42-1.57v-9.31H342.63v13.52h-2.87V110.38h22.11Zm-5.13-.92H344.85v-7.85h11.88Zm-.92-19h-10v2.76h10Zm-7.13-5.25a20.42,20.42,0,0,1-2.49,3.14h9.2a21.83,21.83,0,0,1-2.18-3.14ZM354.16,117h-6.7v3.49h6.7Z"/><path class="cls-2" d="M377,109.54c-.84.46-1.92,1-4.71,2.22v11.49c0,2.3-1.07,3-3,3h-4.1l-.46-3.14h3.22c.5,0,1.26,0,1.26-1.07v-9.08c-1.46.54-3.14,1-4.67,1.49l-.5-3.33a39.59,39.59,0,0,0,5.17-1.49v-8.93h-4.87V97.74h4.87v-7h3.06v7h4.56v2.91h-4.56v7.89a39,39,0,0,0,4.48-1.88Zm-2,13.64a33.21,33.21,0,0,0,11.15-4.9,29.11,29.11,0,0,1-5.29-8.58l2.91-1.15a26.78,26.78,0,0,0,4.83,7.78,22.27,22.27,0,0,0,5.75-8.85H378.95V104.6h8.2V98.66h-9.43V95.71h9.43v-5h3.14v5h9.43v2.95h-9.43v5.94h7.43v2.68a26.91,26.91,0,0,1-7,11.11,29.34,29.34,0,0,0,9.46,4.6l-1.84,3.26a34.5,34.5,0,0,1-10.08-5.79,34.26,34.26,0,0,1-11.65,5.63Z"/><path class="cls-2" d="M400.55,109.39a27.65,27.65,0,0,0,6.78-10.46L410,100a25.26,25.26,0,0,1-2.26,5.25v20.92h-3.07V110a17.26,17.26,0,0,1-2.8,2.91Zm8.62-17.74a21.15,21.15,0,0,1-7,8.7l-1.53-3a17.41,17.41,0,0,0,5.67-6.86Zm4.94,13.83c-.11,5.59-.65,12-2.45,15.9l-2.57-2c1.57-3.68,2-9.08,2.15-13.91Zm5.17-14.75v7.62h6.09v2.91h-6.09v24.94h-3V101.26h-5.59V98.35h5.59V90.73Zm3.95,6.63a28.4,28.4,0,0,0-2.87-5.21l2.34-1.26a21.94,21.94,0,0,1,3,5.06Zm1.19,8.12A78.14,78.14,0,0,1,426,119.81l-3.06.27a95,95,0,0,0-1.23-14.25Zm12.18-.11h-3v17.36c0,1.61,0,3.49-3.3,3.49h-4.71L425,123l4.18,0c.84,0,1.34-.08,1.34-1.11V105.36h-4.9v-3h11ZM436,95.21h-9.77v-3H436Z"/><path class="cls-2" d="M447.68,100.8h5.1v2.87h-5.1v.5a34.63,34.63,0,0,0,5.33,6.93l-1.8,2.72a30.12,30.12,0,0,1-3.52-5.56v17.93h-3V108.62a31.8,31.8,0,0,1-6.09,9.73L437.22,115c3.3-3.1,6.28-9,7.16-11.34h-6.48V100.8h6.74V95.13c-3.49.38-5.06.42-6.28.46l-.65-2.84c3.6-.08,9.65-.61,13.68-2l1.42,2.84a50.81,50.81,0,0,1-5.13,1.11Zm25.59,10,.38,3-4.06.88v11.49h-3.14V115.36L453,118.16l-.38-3,13.79-2.91V90.73h3.14v20.84Zm-12.45-1.11a31.76,31.76,0,0,0-6.55-5.36l1.88-2.34a32.76,32.76,0,0,1,6.82,5.29Zm1.76-9.35a34.91,34.91,0,0,0-6.51-5.56l1.76-2.26a30.33,30.33,0,0,1,6.86,5.4Z"/><path class="cls-2" d="M503.84,105.75a43.45,43.45,0,0,1-9.73,6.25v.8H510v3H494.11v7.55c0,2.53-2,3-3.14,3h-7l-.61-3.3,6.25,0c1.19,0,1.26-.31,1.26-1.19v-6.05H474.57v-3h16.32v-3.18h1.65a21.94,21.94,0,0,0,6.21-3.64h-18v-2.84h23.1Zm-3.72-8.89A56.1,56.1,0,0,0,503,90.54l3.33,1.11a39.42,39.42,0,0,1-2.72,5.21h5.56v8.47H506V99.69H478.63v5.63h-3.14V96.86H481a22.7,22.7,0,0,0-2.64-5.06l2.84-1.11a21,21,0,0,1,3,5.44l-1.92.73Zm-8.39,0a32.81,32.81,0,0,0-2.91-5.44l3-1.19a30.36,30.36,0,0,1,2.91,5.59Z"/><path class="cls-2" d="M527.17,90.73h3.41v9.39H546.9v3.18H531.12c2.38,10,6.78,15.63,16.32,19.58l-2.15,3.22c-8-3.75-13.52-9.12-16-18.39A28.37,28.37,0,0,1,512.92,126l-1.84-3.3c5.71-2.22,13.87-6.93,15.9-19.42H511.43v-3.18h15.75Z"/><path class="cls-2" d="M577.4,105.75a43.44,43.44,0,0,1-9.73,6.25v.8h15.94v3H567.67v7.55c0,2.53-2,3-3.14,3h-7l-.61-3.3,6.25,0c1.19,0,1.26-.31,1.26-1.19v-6.05H548.13v-3h16.32v-3.18h1.65A21.93,21.93,0,0,0,572.3,106h-18v-2.84h23.1Zm-3.72-8.89a56.1,56.1,0,0,0,2.87-6.32l3.33,1.11a39.42,39.42,0,0,1-2.72,5.21h5.56v8.47h-3.14V99.69H552.19v5.63H549V96.86h5.56A22.7,22.7,0,0,0,552,91.8l2.84-1.11a21,21,0,0,1,3,5.44l-1.92.73Zm-8.39,0a32.81,32.81,0,0,0-2.91-5.44l3-1.19a30.36,30.36,0,0,1,2.91,5.59Z"/><path class="cls-2" d="M297.78,236.55V218.91l-6.38.09v-3.07H308V219l-6.35-.09v17.64Z"/><path class="cls-2" d="M324.59,229c0,4.7-3.41,7.86-8.35,7.86s-8.32-3.22-8.32-7.86c0-4.81,3.41-8,8.45-8C321.18,221.07,324.59,224.29,324.59,229Zm-12.86,0c0,3.16,1.81,5.2,4.54,5.2s4.57-2.07,4.57-5.26-1.85-5.29-4.6-5.29S311.74,225.77,311.74,229Z"/><path class="cls-2" d="M330.85,228.75c.44,1.24,1.09,3.28,1.6,5.08h.06c.31-1,1.16-3.75,1.63-5.08l2.6-7.33h3.6l-6,15.57c-1.6,4.14-3.22,6.12-6.63,6.12a9.49,9.49,0,0,1-2.41-.33l.25-2.6a5.71,5.71,0,0,0,1.75.27c1.53,0,2.41-.8,3.25-3.25l-6.16-15.78h3.91Z"/><path class="cls-2" d="M356.75,229c0,4.7-3.41,7.86-8.35,7.86s-8.32-3.22-8.32-7.86c0-4.81,3.41-8,8.45-8C353.34,221.07,356.75,224.29,356.75,229Zm-12.86,0c0,3.16,1.81,5.2,4.54,5.2S353,232.18,353,229s-1.85-5.29-4.6-5.29S343.9,225.77,343.9,229Z"/><path class="cls-2" d="M362.29,220.12c0,1.39,0,2.92-.09,3.78h.06a6.23,6.23,0,0,1,5.26-2.84c4.38,0,5.91,2.72,5.91,6.76v8.71h-3.53v-7.38c0-2.92-.31-5.35-3.38-5.35-2.6,0-4.22,1.86-4.22,5.7v7h-3.53V214.22h3.53Z"/><path class="cls-2" d="M376.9,222.28a12.4,12.4,0,0,1,5.54-1.21c4.85,0,6.69,2.48,6.69,6.08,0,1.3-.06,3-.06,4v1.59a29.83,29.83,0,0,0,.22,3.75h-3.16a11.52,11.52,0,0,1-.06-1.21c0-.38,0-.89.06-1.33h-.06a6,6,0,0,1-5.44,2.78c-3.25,0-5.47-1.74-5.47-4.61,0-3.16,3-4.93,8.35-4.93.66,0,1.53,0,2.25.09,0-2.42-1.25-3.66-3.91-3.66a9.56,9.56,0,0,0-4.79,1.39Zm7.41,7.12c-3.63,0-5.51.77-5.51,2.66,0,1.42,1.06,2.22,2.75,2.22,2.6,0,4.25-1.54,4.25-4.82C385.44,229.43,384.94,229.4,384.31,229.4Z"/><path class="cls-2" d="M390.95,233.33a9.6,9.6,0,0,0,4.19,1c1.56,0,2.82-.65,2.82-1.86s-.72-1.62-3.22-2.6c-2.88-1.12-4-2.22-4-4.28,0-2.81,2.41-4.52,6-4.52a11.7,11.7,0,0,1,4,.65l-.31,2.66a8.59,8.59,0,0,0-3.63-.8c-1.44,0-2.53.62-2.53,1.74s.78,1.57,2.94,2.33c2.91,1.06,4.32,2.25,4.32,4.55,0,3.07-2.56,4.7-6.19,4.7a13.18,13.18,0,0,1-4.63-.77Z"/><path class="cls-2" d="M406.93,220.12c0,1.39,0,2.92-.09,3.78h.06a6.23,6.23,0,0,1,5.26-2.84c4.38,0,5.91,2.72,5.91,6.76v8.71h-3.53v-7.38c0-2.92-.31-5.35-3.38-5.35-2.6,0-4.22,1.86-4.22,5.7v7H403.4V214.22h3.53Z"/><path class="cls-2" d="M424.8,218.62H421v-3.46h3.75Zm-.06,17.93h-3.6V221.42h3.6Z"/><path class="cls-2" d="M451.23,227.92c0,5.61-2.82,9-8.79,9-6.41,0-8.57-3.54-8.57-9v-12h3.82v11.7c0,4,1.22,6.41,4.85,6.41s5-2.36,5-6.41v-11.7h3.69Z"/><path class="cls-2" d="M457.89,223.91a6.17,6.17,0,0,1,5.32-2.84c4.41,0,5.88,2.72,5.88,6.74v8.74h-3.57v-7.38c0-2.92-.22-5.35-3.28-5.35a4.22,4.22,0,0,0-3.57,2.07,7.33,7.33,0,0,0-.72,3.63v7h-3.53V226c0-1.54,0-3.13-.16-4.58h3.44c.06.65.13,1.68.13,2.48Z"/><path class="cls-2" d="M475.82,218.62h-3.75v-3.46h3.75Zm-.06,17.93h-3.6V221.42h3.6Z"/><path class="cls-2" d="M483.73,230.23c.34.95.84,2.63,1.13,3.66h.06c.28-1,.84-2.78,1.16-3.66l3-8.8h3.63l-5.85,15.13h-4.22l-5.85-15.12h3.88Z"/><path class="cls-2" d="M496.09,229.87c.09,2.69,2.19,4.34,5.25,4.34A9.39,9.39,0,0,0,506,233l.13,2.92a13,13,0,0,1-5.16.95c-5.29,0-8.54-3-8.54-8a7.41,7.41,0,0,1,7.82-7.83c4.44,0,7,2.51,7,7.8,0,.27,0,.74-.06,1Zm7.79-2.42c0-2.69-1.5-3.93-3.72-3.93a4,4,0,0,0-4.07,3.93Z"/><path class="cls-2" d="M512.64,224.14a4.77,4.77,0,0,1,4.47-3.07,4.55,4.55,0,0,1,1.47.18v3a4.46,4.46,0,0,0-1.5-.21c-2.78,0-4.32,2.1-4.32,6v6.5h-3.6V225.91c0-1.6,0-3.22-.16-4.49h3.44c.06.71.13,1.92.13,2.72Z"/><path class="cls-2" d="M518.55,233.33a9.6,9.6,0,0,0,4.19,1c1.56,0,2.82-.65,2.82-1.86s-.72-1.62-3.22-2.6c-2.88-1.12-4-2.22-4-4.28,0-2.81,2.41-4.52,6-4.52a11.7,11.7,0,0,1,4,.65l-.31,2.66a8.59,8.59,0,0,0-3.63-.8c-1.44,0-2.53.62-2.53,1.74s.78,1.57,2.94,2.33c2.91,1.06,4.32,2.25,4.32,4.55,0,3.07-2.56,4.7-6.19,4.7a13.18,13.18,0,0,1-4.63-.77Z"/><path class="cls-2" d="M534.73,218.62H531v-3.46h3.75Zm-.06,17.93h-3.6V221.42h3.6Z"/><path class="cls-2" d="M542.48,221.45h4.07V224h-4.07v6.29c0,2.33.41,3.69,2.63,3.69a4.93,4.93,0,0,0,1.63-.29l.09,2.63a9.32,9.32,0,0,1-2.69.38c-3.88,0-5.13-2-5.13-5.64V224h-3.38v-2.57H539v-3.37l3.44-1.09Z"/><path class="cls-2" d="M552.4,228.75c.44,1.24,1.09,3.28,1.6,5.08h.06c.31-1,1.16-3.75,1.63-5.08l2.6-7.33h3.6l-6,15.57c-1.6,4.14-3.22,6.12-6.63,6.12a9.49,9.49,0,0,1-2.41-.33l.25-2.6a5.71,5.71,0,0,0,1.75.27c1.53,0,2.41-.8,3.25-3.25l-6.16-15.78h3.91Z"/><path class="cls-2" d="M584.09,229c0,4.7-3.41,7.86-8.35,7.86s-8.32-3.22-8.32-7.86c0-4.81,3.41-8,8.45-8C580.68,221.07,584.09,224.29,584.09,229Zm-12.86,0c0,3.16,1.81,5.2,4.54,5.2s4.57-2.07,4.57-5.26-1.85-5.29-4.6-5.29S571.23,225.77,571.23,229Z"/><path class="cls-2" d="M595.13,217.05a4.85,4.85,0,0,0-1.56-.27c-1.78,0-2.41,1-2.41,3.37v1.3h4V224h-4v12.53h-3.57V224h-3.47v-2.57h3.47v-1.24c0-3.9,1.53-6.12,5.51-6.12a9.74,9.74,0,0,1,2.31.27Z"/><path class="cls-2" d="M606.52,236.55V218.91l-6.38.09v-3.07h16.55V219l-6.35-.09v17.64Z"/><path class="cls-2" d="M620.29,229.87c.09,2.69,2.19,4.34,5.25,4.34a9.39,9.39,0,0,0,4.69-1.18l.13,2.92a13,13,0,0,1-5.16.95c-5.29,0-8.54-3-8.54-8a7.41,7.41,0,0,1,7.82-7.83c4.44,0,7,2.51,7,7.8,0,.27,0,.74-.06,1Zm7.79-2.42c0-2.69-1.5-3.93-3.72-3.93a4,4,0,0,0-4.07,3.93Z"/><path class="cls-2" d="M643.81,224.47a6.32,6.32,0,0,0-2.75-.56,5.07,5.07,0,1,0,0,10.13,7,7,0,0,0,3-.65l.22,2.81a10.76,10.76,0,0,1-3.66.56c-5.1,0-8.48-3-8.48-7.74s3.63-7.8,8.51-7.8a10.24,10.24,0,0,1,3.38.5Z"/><path class="cls-2" d="M649.41,220.12c0,1.39,0,2.92-.09,3.78h.06a6.23,6.23,0,0,1,5.26-2.84c4.38,0,5.91,2.72,5.91,6.76v8.71H657v-7.38c0-2.92-.31-5.35-3.38-5.35-2.6,0-4.22,1.86-4.22,5.7v7h-3.53V214.22h3.53Z"/><path class="cls-2" d="M667,223.91a6.17,6.17,0,0,1,5.32-2.84c4.41,0,5.88,2.72,5.88,6.74v8.74h-3.57v-7.38c0-2.92-.22-5.35-3.28-5.35a4.22,4.22,0,0,0-3.57,2.07,7.33,7.33,0,0,0-.72,3.63v7h-3.53V226c0-1.54,0-3.13-.16-4.58h3.44c.06.65.13,1.68.13,2.48Z"/><path class="cls-2" d="M696.65,229c0,4.7-3.41,7.86-8.35,7.86S680,233.68,680,229c0-4.81,3.41-8,8.45-8C693.24,221.07,696.65,224.29,696.65,229Zm-12.86,0c0,3.16,1.81,5.2,4.54,5.2s4.57-2.07,4.57-5.26-1.85-5.29-4.6-5.29S683.79,225.77,683.79,229Z"/><path class="cls-2" d="M702.28,236.55h-3.6V214.22h3.6Z"/><path class="cls-2" d="M721,229c0,4.7-3.41,7.86-8.35,7.86s-8.32-3.22-8.32-7.86c0-4.81,3.41-8,8.45-8C717.58,221.07,721,224.29,721,229Zm-12.86,0c0,3.16,1.81,5.2,4.54,5.2s4.57-2.07,4.57-5.26-1.85-5.29-4.6-5.29S708.13,225.77,708.13,229Z"/><path class="cls-2" d="M737.47,221.42v14.24c0,4.11-2.25,7.45-8.13,7.45a18.13,18.13,0,0,1-6.26-1l.31-3.07a12.32,12.32,0,0,0,5.72,1.42c3.16,0,4.88-1.71,4.88-4.93a16,16,0,0,1,.06-1.71H734a5.86,5.86,0,0,1-5.19,2.75c-4.19,0-7-3-7-7.5,0-4.73,2.88-8,7.26-8a5.63,5.63,0,0,1,5.1,2.69h.06c-.06-.95-.06-1.57-.06-2.33Zm-11.92,7.47c0,2.92,1.6,5,4.1,5s4.29-2.16,4.29-5-1.78-5.08-4.32-5.08C727.24,223.76,725.55,226,725.55,228.9Z"/><path class="cls-2" d="M744.86,228.75c.44,1.24,1.09,3.28,1.6,5.08h.06c.31-1,1.16-3.75,1.63-5.08l2.6-7.33h3.6l-6,15.57c-1.6,4.14-3.22,6.12-6.63,6.12a9.49,9.49,0,0,1-2.41-.33l.25-2.6a5.71,5.71,0,0,0,1.75.27c1.53,0,2.41-.8,3.25-3.25l-6.16-15.78h3.91Z"/><path class="cls-2" d="M756.65,240.18h-3l2-7.36h3.82Z"/><path class="cls-2" d="M782.4,219.68a10.29,10.29,0,0,0-4.63-1c-4.6,0-7.76,2.89-7.76,7.44,0,4.73,3.38,7.59,7.91,7.59a12.6,12.6,0,0,0,4.72-.83l.19,3.16a16.08,16.08,0,0,1-5,.71c-7,0-11.86-3.81-11.86-10.58,0-6.26,5-10.46,11.6-10.46a14.7,14.7,0,0,1,5.1.77Z"/><path class="cls-2" d="M799.88,229c0,4.7-3.41,7.86-8.35,7.86s-8.32-3.22-8.32-7.86c0-4.81,3.41-8,8.45-8C796.47,221.07,799.88,224.29,799.88,229ZM787,229c0,3.16,1.81,5.2,4.54,5.2s4.57-2.07,4.57-5.26-1.85-5.29-4.6-5.29S787,225.77,787,229Z"/><path class="cls-2" d="M805.2,223.93a5.84,5.84,0,0,1,5.19-2.87,4.49,4.49,0,0,1,4.6,3,6,6,0,0,1,5.44-3c3.75,0,5.29,2.51,5.29,6.41v9.07h-3.6v-8.86c0-2.54-1-3.87-2.85-3.87-2.16,0-3.72,1.74-3.72,5.35v7.38H812v-9c0-2.51-.84-3.75-2.72-3.75-2.53,0-3.85,2.33-3.85,6.12v6.62h-3.57V226c0-1.51,0-3.13-.16-4.58H805c.06.65.09,1.74.09,2.51Z"/><path class="cls-2" d="M828.63,225.94c0-1.59,0-3.25-.16-4.52h3.41c.06.62.13,1.65.13,2.42h.06a6.13,6.13,0,0,1,5.47-2.78c4.13,0,6.82,3.07,6.82,7.74s-2.75,8.09-6.94,8.09a5.93,5.93,0,0,1-5.25-2.81h-.06c.06.59.09,2.81.09,3.69v5h-3.57ZM832.2,229c0,2.9,1.81,5.2,4.32,5.2s4.13-2.27,4.13-5.23c0-3.13-1.56-5.2-4.1-5.2S832.2,226,832.2,229Z"/><path class="cls-2" d="M857.38,234.1a6.19,6.19,0,0,1-5.54,2.81c-3.47,0-5.69-2.33-5.69-6v-9.51h3.53v7.65c0,2.89.47,5.05,3.35,5.05,2.6,0,4.19-2.28,4.19-5v-7.68h3.57V232a40.65,40.65,0,0,0,.16,4.52h-3.38a24.19,24.19,0,0,1-.12-2.45Z"/><path class="cls-2" d="M868.49,221.45h4.07V224h-4.07v6.29c0,2.33.41,3.69,2.63,3.69a4.93,4.93,0,0,0,1.63-.29l.09,2.63a9.32,9.32,0,0,1-2.69.38c-3.88,0-5.13-2-5.13-5.64V224h-3.38v-2.57H865v-3.37l3.44-1.09Z"/><path class="cls-2" d="M876.59,229.87c.09,2.69,2.19,4.34,5.25,4.34a9.39,9.39,0,0,0,4.69-1.18l.13,2.92a13,13,0,0,1-5.16.95c-5.29,0-8.54-3-8.54-8a7.41,7.41,0,0,1,7.82-7.83c4.44,0,7,2.51,7,7.8,0,.27,0,.74-.06,1Zm7.79-2.42c0-2.69-1.5-3.93-3.72-3.93a4,4,0,0,0-4.07,3.93Z"/><path class="cls-2" d="M893.14,224.14a4.77,4.77,0,0,1,4.47-3.07,4.55,4.55,0,0,1,1.47.18v3a4.46,4.46,0,0,0-1.5-.21c-2.78,0-4.32,2.1-4.32,6v6.5h-3.6V225.91c0-1.6,0-3.22-.16-4.49H893c.06.71.13,1.92.13,2.72Z"/><path class="cls-2" d="M921.29,219.68a10.29,10.29,0,0,0-4.63-1c-4.6,0-7.76,2.89-7.76,7.44,0,4.73,3.38,7.59,7.91,7.59a12.61,12.61,0,0,0,4.72-.83l.19,3.16a16.08,16.08,0,0,1-5,.71c-7,0-11.86-3.81-11.86-10.58,0-6.26,5-10.46,11.6-10.46a14.71,14.71,0,0,1,5.1.77Z"/><path class="cls-2" d="M926.92,236.55h-3.6V214.22h3.6Z"/><path class="cls-2" d="M941.16,234.1a6.19,6.19,0,0,1-5.54,2.81c-3.47,0-5.69-2.33-5.69-6v-9.51h3.53v7.65c0,2.89.47,5.05,3.35,5.05,2.6,0,4.19-2.28,4.19-5v-7.68h3.57V232a40.4,40.4,0,0,0,.16,4.52h-3.38a24.19,24.19,0,0,1-.12-2.45Z"/><path class="cls-2" d="M950.92,234c0,.89-.06,1.92-.12,2.51h-3.25c.13-1.27.16-3,.16-4.55V214.22h3.5v5.52c0,1.48,0,3-.09,4.08h.06a6.31,6.31,0,0,1,5.44-2.75c4.13,0,6.76,3.28,6.76,7.77,0,4.67-2.69,8.06-7,8.06A6,6,0,0,1,951,234Zm.31-5c0,2.92,1.78,5.2,4.32,5.2s4.13-2.25,4.13-5.23-1.47-5.23-4.1-5.23S951.23,226.06,951.23,229Z"/><path class="cls-2" d="M354.66,136.93v62H291.22v-7.75h55.11V144.68h-54.6v-7.75Z"/><path class="cls-2" d="M390.89,154.65c-7-5.7-20.09-11.22-26.36-13.09l3.86-7.12c1.46.45,15.54,4.63,27.3,12.47ZM365,194.54c24.21-1.78,51-9.44,64.39-54.14l7.73,3.56c-6.87,20.48-18,53.78-69.11,59.39Z"/><path class="cls-2" d="M452.53,131.86v28.76c29.62-8.28,38.89-13.8,44.38-17l5.15,6.95c-10.47,5.7-19.57,9.71-49.53,18v19.94c0,4.9,0,6.59,7,6.59h32.88a96.46,96.46,0,0,0,14.34-1.34l.52,8.37a132.58,132.58,0,0,1-14.77,1.07H460.26c-8.16,0-15.8-1.42-15.8-13.09V131.86Zm62.15,2.58a8.93,8.93,0,1,1-8.93-9.26A9.09,9.09,0,0,1,514.69,134.44Zm-13.48,0a4.59,4.59,0,1,0,9.19,0,4.76,4.76,0,0,0-4.64-4.81A4.69,4.69,0,0,0,501.21,134.44Z"/><path class="cls-2" d="M568.25,151.44a404.17,404.17,0,0,1-3.78,42.12h16v6.86h-61.3v-6.86h37.6c2.06-11.31,3.18-27.69,3.52-34.55H526.53v-7.57Z"/><path class="cls-2" d="M660.11,162.66v8.55H583.88v-8.55Z"/><path class="cls-2" d="M692.13,158.75a103.23,103.23,0,0,1,22,14.25,61.94,61.94,0,0,0,11.76-26.36H692.82c-10,14.69-19.4,20.57-23.26,22.88l-5-6.05c17.94-10.33,25.5-25.47,29-35.35l8.24,1.6a93.66,93.66,0,0,1-4.46,9.62h38.12c-2.83,15.94-10.73,54.31-60.78,67l-4.38-7c15.45-3.29,27.21-9.08,38.46-20.12A100.65,100.65,0,0,0,687,164.35Z"/><path class="cls-2" d="M810,140.76c-6.27,37-24.64,58.77-60.78,65.09L746,198.46c34.6-6,47.39-23.77,54-50.22H767.17c-5.24,6.77-13,16-21,21.1l-4.89-6.14a71.78,71.78,0,0,0,28.07-35.44l8.5,1.6a65.2,65.2,0,0,1-5.58,11.4Z"/><path class="cls-2" d="M886.07,153.31c-3,27.34-12.79,47.64-55.89,52.18L827,198.1c25.07-2.4,45.67-9,50-37.31H816.79v-7.48ZM881.26,132v7.48H823V132Z"/><path class="cls-2" d="M959.9,139.25c-1.12,16.38-5.67,57.52-54.34,66.42L901.78,198c26.18-4.45,45.07-17.1,49.36-51.2H894.05v-7.57Zm-9.36-2.31a55.48,55.48,0,0,0-4.29-11.4l5.92-1.51a52.27,52.27,0,0,1,4.64,11.31Zm12.53.18a67,67,0,0,0-4.72-12l5.92-1.42A54.26,54.26,0,0,1,969,135.33Z"/></g></svg>
